<svg xmlns="http://www.w3.org/2000/svg" xmlns:xlink="http://www.w3.org/1999/xlink" xmlns:fi="http://pattern.flaticon.com/" x="0" y="0" width="240" height="240" viewBox="0 0 350 350"><rect x="0px" y="0px" width="100%" height="100%" opacity="0" fill="#ffffff"/><defs><g transform="matrix(0.13616234506878744 -0.024028648128918046 0.024028648128918046 0.13616234506878744 -4.928798985531174 12.349840208345949)" id="L1_0"><path d="m332.022 55.752c-6.901-31.83-35.271-55.752-69.137-55.752h-14.771c-33.866 0-62.236 23.922-69.136 55.752h-122.849v455.248h398.742v-455.248zm-83.907-25.752h14.771c17.177 0 31.905 10.682 37.892 25.752h-26.185v63.81c0 10.528-8.565 19.093-19.093 19.093s-19.093-8.565-19.093-19.093v-63.81h-26.185c5.987-15.07 20.716-25.752 37.893-25.752zm-36.555 111.419c8.055 16.128 24.721 27.235 43.94 27.235s35.885-11.108 43.94-27.235h70.431v283.195h-228.742v-283.195zm213.311 339.581h-338.742v-395.248h120.278v25.667h-95.278v343.195h288.742v-343.195h-95.278v-25.667h120.278z" id="XMLID_490_"/><path d="m255.833 239h79v30h-79z" id="XMLID_495_"/><path d="m176.833 297.667h158v30h-158z" id="XMLID_497_"/><path d="m176.833 358h158v30h-158z" id="XMLID_498_"/><path d="m192.122 239.333h30v-15.289h15.289v-30h-15.289v-15.289h-30v15.289h-15.289v30h15.289z" id="XMLID_505_"/></g><g transform="matrix(0.12912826260371785 0.04094310723447412 -0.04094310723447412 0.12912826260371785 15.493867537871672 266.6394619249448)" id="L1_1"><path d="m371.374 109.494h-8.25v-62.607c.001-25.853-21.033-46.887-46.887-46.887h-122.498c-25.854 0-46.888 21.034-46.888 46.887v62.607h-8.249c-40.511 0-73.469 32.958-73.469 73.469v327.013h379.709v-327.013c0-40.511-32.957-73.469-73.468-73.469zm-194.523-62.607c0-9.312 7.576-16.887 16.888-16.887h122.499c9.312 0 16.887 7.576 16.887 16.887v62.607h-156.274zm-81.718 205.971h319.709v136.622h-319.709zm319.709 227.118h-319.709v-60.496h319.709zm-319.709-257.118v-39.895c0-23.969 19.5-43.469 43.469-43.469h232.772c23.969 0 43.468 19.5 43.468 43.469v39.895z" id="XMLID_789_"/><path d="m138.981 305.793h114.631v30h-114.631z" id="XMLID_793_"/><path d="m350.832 285.544h-30v20.249h-20.248v30h20.248v20.248h30v-20.248h20.248v-30h-20.248z" id="XMLID_794_"/></g><g transform="matrix(0.13493424247038782 0.05397369502490362 -0.05397369502490362 0.13493424247038782 292.4511315515576 2.122198249364722)" id="L1_2"><path d="m359.577 0h-212.179c-26.689 0-48.403 21.714-48.403 48.404v410.168c0 26.69 21.714 48.404 48.403 48.404h212.179c26.69 0 48.404-21.714 48.404-48.404v-410.168c0-26.69-21.714-48.404-48.404-48.404zm-212.179 30h212.179c10.148 0 18.404 8.256 18.404 18.404v323.874h-248.986v-323.874c0-10.148 8.256-18.404 18.403-18.404zm212.179 446.976h-212.179c-10.147 0-18.403-8.256-18.403-18.404v-56.294h248.986v56.294c0 10.148-8.256 18.404-18.404 18.404z" id="XMLID_576_"/><path d="m253.488 425.278c-7.846 0-15.363 6.899-15 15 .364 8.127 6.591 15 15 15 7.846 0 15.363-6.899 15-15-.364-8.127-6.591-15-15-15z" id="XMLID_580_"/><path d="m201.748 299.774h103.48v-35.256h35.256v-103.48h-35.256v-35.256h-103.48v35.256h-35.256v103.48h35.256zm-5.256-65.256v-43.48h35.256v-35.256h43.48v35.256h35.256v43.48h-35.256v35.256h-43.48v-35.256z" id="XMLID_583_"/></g><g transform="matrix(0.1314771516419748 0.10696445563963143 -0.10696445563963143 0.1314771516419748 63.16060816884023 105.50367667830463)" id="L1_4"><path d="m359.834 256.7c.155-52.426-28.236-101.104-78.27-134.949 15.26-12.771 28.163-27.309 38.002-42.988 15.273-24.335 23.345-51.571 23.345-78.763h-30c0 12.254-2.015 24.292-5.879 35.9h-103.485c-3.864-11.607-5.879-23.646-5.879-35.9h-30c0 27.192 8.072 54.428 23.345 78.763 9.839 15.678 22.742 30.216 38.003 42.988-50.033 33.845-78.425 82.522-78.27 134.949.154 52.165 28.512 100.491 78.251 134.129-15.085 12.626-27.861 26.976-37.655 42.454-15.487 24.475-23.673 51.891-23.673 79.284h30c0-11.882 1.895-23.552 5.522-34.822h104.2c3.627 11.269 5.522 22.94 5.522 34.822h30c0-27.394-8.186-54.81-23.673-79.284-9.794-15.478-22.57-29.828-37.655-42.454 49.737-33.639 78.095-81.964 78.249-134.129zm-178.065 14.583h147.041c-1.54 11.436-4.822 22.593-9.743 33.283h-127.554c-4.921-10.69-8.204-21.847-9.744-33.283zm147.043-30h-147.045c1.541-11.431 4.817-22.59 9.742-33.283h127.561c4.925 10.693 8.201 21.852 9.742 33.283zm-36.556-175.383c-9.388 14.107-21.818 27.102-36.966 38.471-15.148-11.369-27.578-24.363-36.966-38.471zm-38.682 75.7 1.716-1.048 1.717 1.049c17.13 10.464 31.543 22.78 42.918 36.399h-89.271c11.375-13.62 25.789-25.936 42.92-36.4zm-35.983 306.145c9.47-14.53 22.149-27.901 37.699-39.564 15.55 11.662 28.229 25.034 37.699 39.564zm38.417-76.164c-.242.146-.477.299-.718.446-.241-.147-.476-.3-.719-.446-17.575-10.594-32.344-23.122-43.943-37.014h89.323c-11.599 13.891-26.368 26.42-43.943 37.014z" id="XMLID_1421_"/><path d="m100.242 439.041c-7.846 0-15.363 6.899-15 15 .364 8.127 6.591 15 15 15 7.846 0 15.363-6.899 15-15-.364-8.127-6.59-15-15-15z" id="XMLID_1427_"/><path d="m128.725 88.232c-7.846 0-15.363 6.899-15 15 .364 8.127 6.591 15 15 15 7.846 0 15.363-6.899 15-15-.364-8.127-6.591-15-15-15z" id="XMLID_1428_"/><path d="m47.745 235.225c-7.846 0-15.363 6.899-15 15 .364 8.127 6.591 15 15 15 7.846 0 15.363-6.899 15-15-.364-8.127-6.591-15-15-15z" id="XMLID_1429_"/><path d="m412.324 439.041c-7.846 0-15.363 6.899-15 15 .364 8.127 6.591 15 15 15 7.846 0 15.363-6.899 15-15-.364-8.127-6.591-15-15-15z" id="XMLID_1430_"/><path d="m383.841 88.232c-7.846 0-15.363 6.899-15 15 .364 8.127 6.591 15 15 15 7.846 0 15.363-6.899 15-15-.364-8.127-6.59-15-15-15z" id="XMLID_1431_"/><path d="m464.822 235.225c-7.846 0-15.363 6.899-15 15 .364 8.127 6.591 15 15 15 7.846 0 15.363-6.899 15-15-.364-8.127-6.591-15-15-15z" id="XMLID_1432_"/></g><path d="m315.5 69.721c4.143 0 7.5-3.358 7.5-7.5v-22.649c0-4.142-3.357-7.5-7.5-7.5s-7.5 3.358-7.5 7.5v22.649c0 4.142 3.357 7.5 7.5 7.5zm-36.904 1.392c2.055 3.646 6.664 4.851 10.217 2.847 3.608-2.035 4.883-6.609 2.848-10.217l-9.511-16.86c-2.034-3.607-6.61-4.881-10.217-2.847-3.608 2.035-4.883 6.609-2.848 10.217zm63.592 2.847c3.545 1.999 8.161.799 10.217-2.847l9.511-16.86c2.035-3.608.761-8.182-2.848-10.217-3.605-2.035-8.182-.76-10.217 2.847l-9.511 16.86c-2.035 3.608-.761 8.182 2.848 10.217zm144.173 206.015-60.8-20.26c-3.446-1.149-6.219-3.742-7.605-7.116l-33.879-82.428c-5.798-14.118-19.413-23.241-34.688-23.241h-.389v-13.502c0-18.472-15.028-33.5-33.5-33.5s-33.5 15.028-33.5 33.5v13.502h-50.961c-.013 0-.026-.002-.039-.002s-.026.002-.039.002h-193.461c-20.678 0-37.5 16.822-37.5 37.5v49.498c0 4.142 3.357 7.5 7.5 7.5s7.5-3.358 7.5-7.5v-49.498c0-12.407 10.094-22.5 22.5-22.5h186v161.998h-208.5v-55c0-4.142-3.357-7.5-7.5-7.5s-7.5 3.358-7.5 7.5v118.002c0 20.678 16.822 37.5 37.5 37.5h19.212c3.723 31.212 30.339 55.498 62.538 55.498s58.815-24.286 62.538-55.498h136.674c3.723 31.212 30.339 55.498 62.538 55.498s58.815-24.286 62.538-55.498h30.962c20.678 0 37.5-16.822 37.5-37.5v-71.38c0-16.171-10.304-30.468-25.639-35.575zm-367.111 184.953c-26.468 0-48-21.533-48-48s21.532-48 48-48 48 21.533 48 48-21.532 48-48 48zm104.25-55.498h-41.712c-3.721-31.214-30.339-55.502-62.538-55.502s-58.817 24.288-62.538 55.502h-19.212c-12.406 0-22.5-10.093-22.5-22.5v-48.002h208.5zm73.5-276.002c0-10.201 8.299-18.5 18.5-18.5s18.5 8.299 18.5 18.5v13.502h-37zm84 331.5c-26.468 0-48-21.533-48-48s21.532-48 48-48 48 21.533 48 48-21.532 48-48 48zm116-141h-114.397c-4.143 0-7.5 3.358-7.5 7.5s3.357 7.5 7.5 7.5h114.397v48.002c0 12.407-10.094 22.5-22.5 22.5h-30.962c-3.721-31.214-30.339-55.502-62.538-55.502s-58.817 24.288-62.538 55.502h-79.962v-70.502h109.103c4.143 0 7.5-3.358 7.5-7.5s-3.357-7.5-7.5-7.5h-109.103v-161.998h110.89c9.165 0 17.335 5.471 20.813 13.941l33.879 82.43c3.047 7.413 9.147 13.114 16.737 15.644l60.801 20.26c9.199 3.064 15.38 11.642 15.38 21.344zm-140.781-139.167c-1.915-4.758-6.467-7.833-11.596-7.833h-78.623c-6.893 0-12.5 5.607-12.5 12.5v69.5c0 6.893 5.607 12.5 12.5 12.5h106.598c8.63.064 14.889-9.16 11.596-17.168zm-87.719 71.667v-64.5h74.434l25.963 64.5zm112.5 138c-12.406 0-22.5 10.093-22.5 22.5s10.094 22.5 22.5 22.5 22.5-10.093 22.5-22.5-10.094-22.5-22.5-22.5zm0 30c-4.136 0-7.5-3.364-7.5-7.5s3.364-7.5 7.5-7.5 7.5 3.364 7.5 7.5-3.364 7.5-7.5 7.5zm-252.75-247.5h-18c-7.444 0-13.5 6.056-13.5 13.5v30h-30c-7.444 0-13.5 6.056-13.5 13.5v18c0 7.444 6.056 13.5 13.5 13.5h30v30c0 7.444 6.056 13.5 13.5 13.5h18c7.444 0 13.5-6.056 13.5-13.5v-30h30c7.444 0 13.5-6.056 13.5-13.5v-18c0-7.444-6.056-13.5-13.5-13.5h-30v-30c0-7.444-6.056-13.5-13.5-13.5zm42 58.5v15h-33c-5.79 0-10.5 4.71-10.5 10.5v33h-15v-33c0-5.79-4.71-10.5-10.5-10.5h-33v-15h33c5.79 0 10.5-4.71 10.5-10.5v-33h15v33c0 5.79 4.71 10.5 10.5 10.5zm-51 159c-12.406 0-22.5 10.093-22.5 22.5s10.094 22.5 22.5 22.5 22.5-10.093 22.5-22.5-10.094-22.5-22.5-22.5zm0 30c-4.136 0-7.5-3.364-7.5-7.5s3.364-7.5 7.5-7.5 7.5 3.364 7.5 7.5-3.364 7.5-7.5 7.5z" transform="matrix(0.199940068264665 -0.03528353998880105 0.03528353998880105 0.199940068264665 225.78117749094693 251.84870833569826)" id="L1_5"/><path d="m193.645 203.5v30h-30c-7.444 0-13.5 6.056-13.5 13.5v18c0 7.444 6.056 13.5 13.5 13.5h30v30c0 7.444 6.056 13.5 13.5 13.5h18c7.444 0 13.5-6.056 13.5-13.5v-30h30c7.444 0 13.5-6.056 13.5-13.5v-18c0-7.444-6.056-13.5-13.5-13.5h-30v-30c0-7.444-6.056-13.5-13.5-13.5h-18c-7.444 0-13.5 6.056-13.5 13.5zm15 1.5h15v33c0 5.79 4.71 10.5 10.5 10.5h33v15h-33c-5.79 0-10.5 4.71-10.5 10.5v33h-15v-33c0-5.79-4.71-10.5-10.5-10.5h-33v-15h33c5.79 0 10.5-4.71 10.5-10.5zm167.5-205c-37.854 0-70.656 22.025-86.277 53.931-4.379-2.116-8.7-4.389-12.896-6.826-19.055-11.07-36.05-25.312-50.509-42.327-2.576-3.037-6.337-4.778-10.318-4.778s-7.742 1.741-10.315 4.773c-14.463 17.019-31.458 31.261-50.513 42.331-38.382 22.299-76.536 26.718-101.805 26.436-3.648-.03-7.066 1.358-9.649 3.919-2.584 2.562-4.008 5.979-4.008 9.621v128.749c0 4.143 3.358 7.5 7.5 7.5s7.5-3.357 7.5-7.5v-127.28c27.087.101 67.417-4.899 107.998-28.474 20.043-11.645 37.964-26.539 53.292-44.287 15.326 17.747 33.247 32.641 53.293 44.287 4.842 2.812 9.835 5.432 14.899 7.846-2.49 8.127-3.933 16.708-4.161 25.586-8.007-3.512-15.814-7.462-23.305-11.822-11.517-6.689-22.523-14.42-32.705-22.971-4.647-3.914-11.395-3.915-16.035-.007-10.191 8.558-21.198 16.288-32.716 22.979-25.952 15.083-54.5 24.951-84.865 29.334-6.098.891-10.696 6.208-10.696 12.37v181.69c0 57.639 28.953 110.706 77.449 141.956 15.791 10.169 34.018 17.808 55.72 23.35 2.04.521 4.197.522 6.236.001 21.708-5.543 39.935-13.182 55.727-23.352 48.495-31.249 77.448-84.316 77.448-141.955v-116.045c7.586 1.934 15.53 2.965 23.71 2.965.431 0 .86-.014 1.29-.02v113.1c0 32.676-8.337 65.041-24.109 93.595-15.494 28.051-37.902 52.042-64.802 69.38-20.282 13.062-43.973 22.48-72.379 28.769-28.406-6.288-52.097-15.706-72.376-28.767-26.902-17.34-49.311-41.331-64.805-69.382-15.772-28.554-24.109-60.919-24.109-93.595v-54.251c0-4.143-3.358-7.5-7.5-7.5s-7.5 3.357-7.5 7.5v54.251c0 35.206 8.983 70.078 25.979 100.848 16.689 30.214 40.828 56.058 69.811 74.738 22.2 14.298 48.014 24.491 78.918 31.165 1.043.225 2.123.225 3.166 0 30.904-6.674 56.718-16.867 78.92-31.167 28.98-18.679 53.119-44.522 69.808-74.736 16.995-30.77 25.979-65.642 25.979-100.848v-114.487c25.189-4.354 47.901-18.671 62.735-40.137 2.355-3.407 1.501-8.079-1.906-10.434-3.409-2.355-8.079-1.501-10.434 1.906-15.177 21.961-40.105 35.072-66.685 35.072-44.664 0-81-36.337-81-81s36.336-81 81-81 81 36.337 81 81c0 5.502-.557 11.001-1.656 16.345-.834 4.057 1.778 8.022 5.835 8.857 4.062.833 8.023-1.778 8.857-5.836 1.303-6.335 1.964-12.851 1.964-19.366 0-52.935-43.065-96-96-96zm-38.71 183.84v121.24c0 52.518-26.382 100.871-70.571 129.345-14.268 9.189-30.861 16.151-50.719 21.275-19.854-5.123-36.45-12.086-50.717-21.274-44.19-28.475-70.573-76.828-70.573-129.346v-179.536c31.463-4.806 61.091-15.193 88.097-30.889 11.644-6.764 22.799-14.527 33.193-23.103 10.389 8.571 21.546 16.337 33.188 23.1 10.162 5.913 20.863 11.135 31.866 15.561 4.918 32.993 26.683 60.553 56.236 73.627zm-217.29 72.16c0 52.935 43.065 96 96 96s96-43.065 96-96-43.065-96-96-96-96 43.065-96 96zm177 0c0 44.663-36.336 81-81 81s-81-36.337-81-81 36.336-81 81-81 81 36.337 81 81zm129.391-200.802c-8.893-8.092-22.659-7.633-31.338 1.045l-34.165 34.165-4.24-4.24c-8.643-8.731-23.16-8.661-31.821-.001-8.772 8.772-8.773 23.046 0 31.819l16.617 16.619c5.188 5.186 12.092 8.041 19.443 8.041 7.352 0 14.257-2.856 19.445-8.044l46.839-46.84c9.006-8.93 8.517-24.104-.78-32.564zm-9.825 21.957-46.839 46.84c-2.355 2.354-5.494 3.651-8.839 3.651s-6.484-1.296-8.837-3.648l-16.616-16.617c-2.924-2.925-2.924-7.683 0-10.606 2.888-2.887 7.734-2.902 10.607-.001l7.421 7.422c1.983 1.984 4.62 3.077 7.425 3.077s5.441-1.092 7.425-3.075l37.347-37.347c2.955-2.957 7.728-3.206 10.637-.559 3.119 2.838 3.277 7.891.269 10.863z" transform="matrix(0.16649404771188178 -0.044596619646741865 0.044596619646741865 0.16649404771188178 198.82650240031344 137.10676632023575)" id="L1_6"/><path d="m421 459.5c-4.136 0-7.5 3.364-7.5 7.5s3.364 7.5 7.5 7.5 7.5-3.364 7.5-7.5-3.364-7.5-7.5-7.5zm22.5-31.446v-43.294c0-15.047-4.354-29.64-12.593-42.202-2.271-3.463-6.919-4.429-10.385-2.158-3.464 2.271-4.43 6.921-2.158 10.384 6.631 10.111 10.136 21.86 10.136 33.976v37.877c-2.441-.411-4.944-.637-7.5-.637s-5.059.226-7.5.637v-37.877c0-25.987-21.138-47.13-47.12-47.13-25.987 0-47.13 21.143-47.13 47.13v43.28c0 34.253-27.871 62.12-62.13 62.12-34.253 0-62.12-27.867-62.12-62.12v-22.312c2.327.834 4.95 1.292 7.519 1.292 2.591 0 5.106-.458 7.481-1.297v22.317c0 25.982 21.138 47.12 47.12 47.12 25.987 0 47.13-21.138 47.13-47.12v-43.28c0-34.258 27.871-62.13 62.13-62.13 10.166 0 20.255 2.521 29.176 7.291 3.654 1.952 8.197.575 10.15-3.078s.574-8.197-3.078-10.15c-11.089-5.928-23.623-9.062-36.248-9.062-42.529 0-77.13 34.6-77.13 77.13v43.28c0 17.711-14.413 32.12-32.13 32.12-17.711 0-32.12-14.409-32.12-32.12v-102.435c76.673-11.062 134-76.954 134-154.885 0-9.429-6.171-18.14-15-21.23v-71.991c0-25.834-17.146-48.042-41.522-54.867-2.511-12.88-13.874-22.633-27.478-22.633h-15c-15.439 0-28 12.561-28 28s12.561 28 28 28h15c11.939 0 22.151-7.514 26.17-18.058 16.479 5.862 27.83 21.51 27.83 39.558v72.027c-8.74 3.148-14.968 11.656-15.001 21.58-.208 61.268-50.227 111.114-111.499 111.114-25.738 0-50.866-9.018-70.756-25.391-3.197-2.632-7.924-2.175-10.557 1.023s-2.175 7.925 1.023 10.557c22.567 18.579 51.081 28.811 80.289 28.811 69.516 0 126.263-56.552 126.499-126.063.014-4.153 3.181-7.708 7.059-7.925 4.244-.237 7.942 3.228 7.942 7.488 0 71.665-53.615 132.07-124.714 140.508-5.294.628-9.286 5.11-9.286 10.425v62.865c.023 4.21-3.668 7.689-7.873 7.491-3.93-.185-7.127-3.736-7.127-7.915v-62.441c0-5.315-3.992-9.797-9.286-10.425-71.098-8.438-124.713-68.843-124.713-140.508 0-4.255 3.694-7.725 7.941-7.488 3.879.216 7.046 3.771 7.06 7.925.085 25.115 7.547 49.377 21.578 70.165 2.317 3.433 6.977 4.337 10.413 2.021 3.433-2.317 4.338-6.979 2.021-10.413-12.362-18.314-18.937-39.692-19.012-61.823-.033-9.924-6.26-18.432-15.001-21.58v-72.028c0-18.048 11.351-33.696 27.83-39.558 4.019 10.544 14.231 18.058 26.17 18.058h15c15.439 0 28-12.561 28-28s-12.561-28-28-28h-15c-13.604 0-24.967 9.753-27.478 22.633-24.376 6.825-41.522 29.033-41.522 54.867v71.993c-8.84 3.097-15 11.824-15 21.228 0 77.931 57.327 143.823 134 154.885v102.434c0 42.524 34.596 77.12 77.12 77.12 42.529 0 77.13-34.596 77.13-77.12v-43.28c0-17.716 14.413-32.13 32.13-32.13 17.711 0 32.12 14.414 32.12 32.13v43.294c-13.437 7.793-22.5 22.326-22.5 38.946 0 24.813 20.187 45 45 45s45-20.187 45-45c0-16.62-9.063-31.153-22.5-38.946zm-168.5-387.054h-15c-7.168 0-13-5.832-13-13s5.832-13 13-13h15c7.168 0 13 5.832 13 13s-5.832 13-13 13zm-145-26h15c7.168 0 13 5.832 13 13s-5.832 13-13 13h-15c-7.168 0-13-5.832-13-13s5.832-13 13-13zm291 482c-16.542 0-30-13.458-30-30s13.458-30 30-30 30 13.458 30 30-13.458 30-30 30z" transform="matrix(0.13293002909623372 -0.09274188325513326 0.09274188325513326 0.13293002909623372 115.15358160820928 55.36595476666221)" id="L1_7"/><g transform="matrix(0.15606606334761208 -0.029446427841001425 0.029446427841001425 0.15606606334761208 112.67745919878564 253.18968754890454)" id="L1_8"><path d="m32 112a16.019 16.019 0 0 1 16-16h216v-16h-216a32.036 32.036 0 0 0 -32 32v32h16z"/><path d="m448 352h-32a32.036 32.036 0 0 0 -32 32v32h-336a16.019 16.019 0 0 1 -16-16v-240h-16v304a32.036 32.036 0 0 0 32 32h384a32.036 32.036 0 0 0 32-32v-72h-16v40a16.019 16.019 0 0 1 -16 16h-384a16.019 16.019 0 0 1 -16-16v-4.3a31.793 31.793 0 0 0 16 4.3h344a8 8 0 0 0 5.657-2.343l64-64a8 8 0 0 0 2.343-5.657v-128h-16zm-400 112h384a31.793 31.793 0 0 0 16-4.305v4.305a16.019 16.019 0 0 1 -16 16h-384a16.019 16.019 0 0 1 -16-16v-4.3a31.793 31.793 0 0 0 16 4.3zm368-96h20.687l-36.687 36.687v-20.687a16.019 16.019 0 0 1 16-16z"/><path d="m272 192v-16h-216v16h72v32h-72v16h72v32h-72v16h72v32h-72v16h72v32h-72v16h304v-16h-24v-32h32v16h16v-16h40v-16h-40v-32h40v-16h-40v-16h-16v16h-32v-24h-16v24h-32v-16h-16v16h-32v-32h16v-16h-16v-32zm-128 0h32v32h-32zm0 48h32v32h-32zm0 48h32v32h-32zm80 80h-32v-32h32zm16-32h32v32h-32zm-48-16v-32h32v32zm-48 16h32v32h-32zm176 32h-32v-32h32zm48-80v32h-32v-32zm-48 0v32h-32v-32zm-48 0v32h-32v-32zm-48-16h-32v-32h32zm0-48h-32v-32h32z"/><path d="m72 112v16h-16v16h16v16h16v-16h16v-16h-16v-16z"/><path d="m120 112h16v16h-16z"/><path d="m152 112h64v16h-64z"/><path d="m120 144h96v16h-96z"/><path d="m272.647 228.849a8 8 0 0 0 1.7 8.808 8.16 8.16 0 0 0 8.808 1.7l40.159-17.212a112 112 0 1 0 60.686-206.145 111.336 111.336 0 0 0 -43.154 8.618l6.169 14.764a96.013 96.013 0 1 1 -18.239 167.148 8.005 8.005 0 0 0 -7.759-.813l-25.785 11.052 11.05-25.786a8 8 0 0 0 -.813-7.758 96.028 96.028 0 0 1 27.319-136.44l-8.548-13.525a112.038 112.038 0 0 0 -34.382 155.43z"/><path d="m400 64h-32a8 8 0 0 0 -8 8v32h-32a8 8 0 0 0 -8 8v32a8 8 0 0 0 8 8h32v32a8 8 0 0 0 8 8h32a8 8 0 0 0 8-8v-32h32a8 8 0 0 0 8-8v-32a8 8 0 0 0 -8-8h-32v-32a8 8 0 0 0 -8-8zm32 56v16h-32a8 8 0 0 0 -8 8v32h-16v-32a8 8 0 0 0 -8-8h-32v-16h32a8 8 0 0 0 8-8v-32h16v32a8 8 0 0 0 8 8z"/></g></defs><g fi:class="KUsePattern" opacity="0.14"><pattern id="pattern_L1_0" width="350" height="350" patternUnits="userSpaceOnUse"><use xlink:href="#L1_0" x="-350" y="-350"/><use xlink:href="#L1_0" x="0" y="-350"/><use xlink:href="#L1_0" x="350" y="-350"/><use xlink:href="#L1_0" x="-350" y="0"/><use xlink:href="#L1_0" x="0" y="0"/><use xlink:href="#L1_0" x="350" y="0"/><use xlink:href="#L1_0" x="-350" y="350"/><use xlink:href="#L1_0" x="0" y="350"/><use xlink:href="#L1_0" x="350" y="350"/></pattern><rect x="0" y="0" width="100%" height="100%" fill="url(#pattern_L1_0)"/></g><g fi:class="KUsePattern" opacity="0.17"><pattern id="pattern_L1_1" width="350" height="350" patternUnits="userSpaceOnUse"><use xlink:href="#L1_1" x="-350" y="-350"/><use xlink:href="#L1_1" x="0" y="-350"/><use xlink:href="#L1_1" x="350" y="-350"/><use xlink:href="#L1_1" x="-350" y="0"/><use xlink:href="#L1_1" x="0" y="0"/><use xlink:href="#L1_1" x="350" y="0"/><use xlink:href="#L1_1" x="-350" y="350"/><use xlink:href="#L1_1" x="0" y="350"/><use xlink:href="#L1_1" x="350" y="350"/></pattern><rect x="0" y="0" width="100%" height="100%" fill="url(#pattern_L1_1)"/></g><g fi:class="KUsePattern" opacity="0.13"><pattern id="pattern_L1_2" width="350" height="350" patternUnits="userSpaceOnUse"><use xlink:href="#L1_2" x="-350" y="-350"/><use xlink:href="#L1_2" x="0" y="-350"/><use xlink:href="#L1_2" x="350" y="-350"/><use xlink:href="#L1_2" x="-350" y="0"/><use xlink:href="#L1_2" x="0" y="0"/><use xlink:href="#L1_2" x="350" y="0"/><use xlink:href="#L1_2" x="-350" y="350"/><use xlink:href="#L1_2" x="0" y="350"/><use xlink:href="#L1_2" x="350" y="350"/></pattern><rect x="0" y="0" width="100%" height="100%" fill="url(#pattern_L1_2)"/></g><g fi:class="KUsePattern" opacity="0.16"><pattern id="pattern_L1_4" width="350" height="350" patternUnits="userSpaceOnUse"><use xlink:href="#L1_4" x="-350" y="-350"/><use xlink:href="#L1_4" x="0" y="-350"/><use xlink:href="#L1_4" x="350" y="-350"/><use xlink:href="#L1_4" x="-350" y="0"/><use xlink:href="#L1_4" x="0" y="0"/><use xlink:href="#L1_4" x="350" y="0"/><use xlink:href="#L1_4" x="-350" y="350"/><use xlink:href="#L1_4" x="0" y="350"/><use xlink:href="#L1_4" x="350" y="350"/></pattern><rect x="0" y="0" width="100%" height="100%" fill="url(#pattern_L1_4)"/></g><g fi:class="KUsePattern" opacity="0.17"><pattern id="pattern_L1_5" width="350" height="350" patternUnits="userSpaceOnUse"><use xlink:href="#L1_5" x="-350" y="-350"/><use xlink:href="#L1_5" x="0" y="-350"/><use xlink:href="#L1_5" x="350" y="-350"/><use xlink:href="#L1_5" x="-350" y="0"/><use xlink:href="#L1_5" x="0" y="0"/><use xlink:href="#L1_5" x="350" y="0"/><use xlink:href="#L1_5" x="-350" y="350"/><use xlink:href="#L1_5" x="0" y="350"/><use xlink:href="#L1_5" x="350" y="350"/></pattern><rect x="0" y="0" width="100%" height="100%" fill="url(#pattern_L1_5)"/></g><g fi:class="KUsePattern" opacity="0.15"><pattern id="pattern_L1_6" width="350" height="350" patternUnits="userSpaceOnUse"><use xlink:href="#L1_6" x="-350" y="-350"/><use xlink:href="#L1_6" x="0" y="-350"/><use xlink:href="#L1_6" x="350" y="-350"/><use xlink:href="#L1_6" x="-350" y="0"/><use xlink:href="#L1_6" x="0" y="0"/><use xlink:href="#L1_6" x="350" y="0"/><use xlink:href="#L1_6" x="-350" y="350"/><use xlink:href="#L1_6" x="0" y="350"/><use xlink:href="#L1_6" x="350" y="350"/></pattern><rect x="0" y="0" width="100%" height="100%" fill="url(#pattern_L1_6)"/></g><g fi:class="KUsePattern" opacity="0.15"><pattern id="pattern_L1_7" width="350" height="350" patternUnits="userSpaceOnUse"><use xlink:href="#L1_7" x="-350" y="-350"/><use xlink:href="#L1_7" x="0" y="-350"/><use xlink:href="#L1_7" x="350" y="-350"/><use xlink:href="#L1_7" x="-350" y="0"/><use xlink:href="#L1_7" x="0" y="0"/><use xlink:href="#L1_7" x="350" y="0"/><use xlink:href="#L1_7" x="-350" y="350"/><use xlink:href="#L1_7" x="0" y="350"/><use xlink:href="#L1_7" x="350" y="350"/></pattern><rect x="0" y="0" width="100%" height="100%" fill="url(#pattern_L1_7)"/></g><g fi:class="KUsePattern" opacity="0.17"><pattern id="pattern_L1_8" width="350" height="350" patternUnits="userSpaceOnUse"><use xlink:href="#L1_8" x="-350" y="-350"/><use xlink:href="#L1_8" x="0" y="-350"/><use xlink:href="#L1_8" x="350" y="-350"/><use xlink:href="#L1_8" x="-350" y="0"/><use xlink:href="#L1_8" x="0" y="0"/><use xlink:href="#L1_8" x="350" y="0"/><use xlink:href="#L1_8" x="-350" y="350"/><use xlink:href="#L1_8" x="0" y="350"/><use xlink:href="#L1_8" x="350" y="350"/></pattern><rect x="0" y="0" width="100%" height="100%" fill="url(#pattern_L1_8)"/></g></svg>